<svg width="302" height="302" viewBox="0 0 302 302" fill="none" 
     xmlns="http://www.w3.org/2000/svg">
     <g filter="url(#filter0_d)">
          <path fill-rule="evenodd" clip-rule="evenodd" d="M145.546 98.6083C144.935 98.6532 144.253 98.7704 144.031 98.8688C143.809 98.9673 142.809 99.1547 141.809 99.286C140.809 99.4173 139.446 99.688 138.779 99.8879C138.112 100.088 137.203 100.346 136.759 100.461C135.61 100.759 134.065 101.296 133.123 101.725C132.679 101.927 132.069 102.152 131.768 102.225C131.467 102.298 131.115 102.485 130.985 102.641C130.856 102.797 130.657 102.924 130.543 102.924C130.357 102.924 128.552 103.725 127.77 104.155C125.606 105.344 124.189 106.238 121.709 107.981C118.777 110.04 113.422 115.282 111.509 117.962C111.287 118.274 110.92 118.767 110.693 119.059C110.313 119.549 108.957 121.595 108.067 123.023C105.955 126.413 104.268 130.723 104.274 132.719C104.289 137.323 107.442 138.305 110.566 134.677V134.677C111.088 134.072 111.925 133.843 112.682 134.099L112.831 134.15C114.85 134.832 117.101 136.683 118.512 138.819C118.791 139.242 119.193 139.85 119.405 140.171C119.617 140.492 119.88 140.901 119.99 141.08C121.285 143.195 121.714 143.975 121.825 144.418C121.897 144.708 122.036 144.993 122.134 145.053C122.319 145.168 123.73 148.004 123.73 148.262C123.73 148.344 123.912 148.642 124.134 148.925C124.356 149.207 124.54 149.585 124.543 149.765C124.545 149.944 124.725 150.318 124.942 150.596C125.159 150.874 125.339 151.234 125.341 151.396C125.348 151.817 129.152 159.409 129.886 160.465C130.524 161.384 130.757 161.728 131.632 163.042C132.164 163.841 133.535 164.938 134 164.938C134.138 164.938 134.609 165.121 135.049 165.346C136.128 165.896 170.638 165.891 171.065 165.34C171.279 165.063 172.077 164.404 174.895 162.17C176.78 160.676 177.49 159.899 177.209 159.64C177.182 159.614 168.16 159.546 157.161 159.488L138.114 159.388C137.492 159.385 136.883 159.21 136.355 158.882V158.882C134.791 157.912 133.619 156.083 131.433 151.202C131.309 150.924 131.125 150.561 131.024 150.394C130.834 150.08 129.446 147.192 128.887 145.95C128.397 144.861 127.006 142.265 125.447 139.529C124.669 138.164 123.883 136.772 123.698 136.435C123.514 136.098 123.241 135.669 123.092 135.482C122.943 135.296 122.696 134.916 122.544 134.638C121.799 133.283 120.238 131.427 119.278 130.755C119.005 130.564 118.326 130.088 117.771 129.698C117.215 129.308 116.67 128.984 116.559 128.979C116.448 128.973 115.902 128.746 115.347 128.472C114.791 128.199 114.235 127.975 114.112 127.974C113.149 127.966 112.624 126.833 113.194 125.994C113.399 125.693 113.808 125.061 114.103 124.588C115.184 122.859 115.744 122.006 115.992 121.71C117.621 119.762 118.072 119.215 118.674 118.455C119.509 117.4 122.417 114.741 125.339 112.36C125.779 112.002 126.897 111.254 127.523 110.899C127.826 110.728 128.346 110.414 128.679 110.201C129.46 109.701 133.889 107.505 134.941 107.096C138.423 105.74 139.871 105.317 142.718 104.821C143.662 104.657 144.98 104.416 145.647 104.286C148.717 103.689 157.119 104.072 160.595 104.969C161.039 105.083 161.994 105.311 162.716 105.475C163.438 105.64 164.212 105.893 164.436 106.039C164.66 106.185 165.16 106.373 165.547 106.455C166.987 106.764 171.651 108.929 173.624 110.206C174.124 110.529 174.715 110.889 174.937 111.005C175.159 111.121 175.614 111.421 175.947 111.671C179.568 114.384 179.989 114.739 182.209 116.964C183.851 118.608 185.292 120.255 185.624 120.867C185.725 121.053 186.137 121.614 186.539 122.114C187.528 123.341 188.37 124.613 188.37 124.878C188.37 124.997 188.511 125.212 188.685 125.356C188.858 125.5 189.129 125.897 189.287 126.239C189.445 126.581 189.658 126.997 189.761 127.164C190.564 128.46 192.813 133.783 192.815 134.39C192.816 134.582 192.948 134.992 193.109 135.3C193.27 135.608 193.505 136.381 193.632 137.017C193.759 137.653 193.953 138.537 194.064 138.981C194.175 139.425 194.352 140.607 194.458 141.607C194.564 142.607 194.745 144.016 194.86 144.738C195.197 146.845 194.765 155.395 194.248 156.858C194.15 157.136 193.965 157.908 193.838 158.575C193.71 159.242 193.466 160.196 193.296 160.696C193.125 161.196 192.906 161.969 192.809 162.413C192.712 162.857 192.446 163.581 192.218 164.021C191.99 164.461 191.804 164.943 191.804 165.092C191.804 165.241 191.631 165.699 191.42 166.11C191.208 166.521 190.698 167.539 190.284 168.372C189.872 169.205 189.392 170.16 189.218 170.493C188.739 171.412 186.397 174.815 185.515 175.874C185.085 176.389 184.734 176.877 184.734 176.958C184.734 177.213 180.038 181.812 178.729 182.838C176.661 184.459 175.648 185.22 175.075 185.58C173.224 186.746 168.661 189.162 168.293 189.173C168.194 189.175 167.74 189.349 167.283 189.558C165.67 190.296 163.712 190.996 163.26 190.996C163.009 190.996 162.301 191.172 161.688 191.388C161.074 191.604 159.85 191.845 158.967 191.924C158.085 192.003 157.147 192.208 156.883 192.38C156.174 192.84 146.021 192.836 145.313 192.375C145.052 192.205 144.157 192 143.324 191.919C142.491 191.838 141.289 191.597 140.654 191.384C140.019 191.171 139.29 190.996 139.035 190.996C138.78 190.996 138.244 190.821 137.844 190.606C137.444 190.392 136.764 190.153 136.332 190.076C135.9 189.998 135.411 189.817 135.244 189.673C135.077 189.529 134.682 189.347 134.366 189.268C133.762 189.117 130.121 187.325 129.083 186.667C124.744 183.918 124.036 183.354 120.429 179.779C117.333 176.71 116.557 175.783 114.767 173.026C114.223 172.188 113.627 171.276 113.443 170.998C113.137 170.537 111.902 168.061 110.492 165.082C109.709 163.428 109.245 163.12 107.54 163.12C104.836 163.12 103.962 164.851 105.236 167.683C107.042 171.698 109.166 175.84 109.802 176.589C109.973 176.791 110.38 177.366 110.705 177.866C111.03 178.366 111.48 179.012 111.705 179.302C111.931 179.593 112.251 180.04 112.418 180.296C112.711 180.747 113.311 181.46 115.65 184.137C118.243 187.105 124.964 191.989 128.578 193.532C128.967 193.698 129.433 193.916 129.613 194.017C129.917 194.186 131.894 194.95 134.335 195.841C134.891 196.044 135.75 196.268 136.244 196.339C136.738 196.41 137.25 196.557 137.381 196.665C137.511 196.773 138.379 196.962 139.309 197.084C140.24 197.205 141.501 197.454 142.112 197.635C143.763 198.125 157.664 198.129 158.575 197.639C158.908 197.461 159.699 197.263 160.332 197.2C161.408 197.095 162.224 196.877 165.544 195.813C168.537 194.853 173.067 192.692 175.959 190.847C176.175 190.709 176.669 190.412 177.058 190.186C177.447 189.961 178.31 189.368 178.977 188.869C179.644 188.371 180.416 187.805 180.694 187.615C182.904 186.094 189.316 179.705 190.946 177.399C191.196 177.045 191.625 176.437 191.898 176.048C192.172 175.659 192.672 174.952 193.008 174.475C193.346 173.999 193.622 173.552 193.622 173.481C193.622 173.41 193.751 173.209 193.908 173.034C194.066 172.858 194.51 172.124 194.895 171.402C195.279 170.68 195.74 169.816 195.919 169.483C196.685 168.057 198.024 164.983 198.163 164.332C198.247 163.943 198.432 163.398 198.576 163.12C199.365 161.594 200.11 158.334 200.896 152.966C201.311 150.129 201.092 143.668 200.46 140.092C199.972 137.331 199.661 135.899 199.406 135.244C199.254 134.855 199.066 134.183 198.988 133.75C198.909 133.317 198.724 132.772 198.576 132.538C198.429 132.304 198.244 131.795 198.167 131.406C198.09 131.017 197.912 130.517 197.774 130.295C197.635 130.073 197.403 129.527 197.259 129.083C196.261 126.008 190.422 116.458 189.54 116.458C189.457 116.458 189.257 116.208 189.094 115.903C188.635 115.045 185.542 111.98 183.027 109.893C182.492 109.449 181.952 108.994 181.828 108.883C181.036 108.173 178 106.087 177.058 105.605C176.78 105.463 176.144 105.076 175.644 104.745C175.144 104.415 174.508 104.048 174.23 103.931C173.952 103.814 173.316 103.526 172.816 103.292C169.944 101.944 169.279 101.675 166.958 100.92C164.579 100.145 162.283 99.5652 160.494 99.286C159.661 99.1562 158.752 98.9557 158.474 98.8411C157.97 98.633 147.73 98.4487 145.546 98.6083ZM140.89 119.073C139.978 119.35 138.674 120.292 138.28 120.96C138.069 121.317 137.569 122.064 137.167 122.619C136.052 124.162 135.501 125.055 135.341 125.578C135.262 125.839 135.081 126.189 134.941 126.356C134.801 126.523 134.618 126.886 134.536 127.164C134.453 127.442 133.984 128.5 133.493 129.515C132.004 132.592 131.962 132.35 135.08 138.577C137.183 142.778 138.438 144.514 140.08 145.499V145.499C140.683 145.86 141.372 146.052 142.075 146.054L159.001 146.106C175.667 146.157 177.022 146.135 177.282 145.82C177.521 145.532 177.521 145.466 177.284 145.386C177.131 145.335 176.526 144.873 175.939 144.359C175.353 143.845 174.359 143.016 173.73 142.516C173.101 142.016 172.388 141.422 172.146 141.196C170.845 139.985 171.776 140.055 157.699 140.106C141.673 140.165 142.285 140.275 140.476 136.983C138.04 132.552 138.057 132.693 139.612 129.637C141.081 126.749 141.602 126.081 143.035 125.243V125.243C143.687 124.862 144.429 124.663 145.184 124.665L160.507 124.716C175.843 124.768 177.002 124.748 177.269 124.426C177.522 124.122 177.501 124.043 177.09 123.754C176.615 123.419 174.843 121.989 174.145 121.376C173.159 120.51 171.631 119.315 171.247 119.109C170.754 118.845 141.754 118.811 140.89 119.073ZM104.641 154.179C102.798 154.645 101.745 157.278 102.732 158.951C103.98 161.067 107.52 160.843 108.361 158.595C109.324 156.021 107.223 153.527 104.641 154.179ZM141.489 170.064C136.117 172.11 137.136 179.28 142.8 179.28C148.638 179.28 149.761 172.081 144.242 170.042C142.814 169.514 142.934 169.513 141.489 170.064ZM158.513 169.994C155.561 171.043 154.166 174.146 155.469 176.767C157.674 181.2 164.736 179.643 164.736 174.724C164.736 171.442 161.456 168.949 158.513 169.994Z" fill="white"/>
          <path fill-rule="evenodd" clip-rule="evenodd" d="M50 151V192C50 220.284 50 234.426 58.7868 243.213C67.5736 252 81.7157 252 110 252H151H192C220.284 252 234.426 252 243.213 243.213C252 234.426 252 220.284 252 192V151V110C252 81.7157 252 67.5736 243.213 58.7868C234.426 50 220.284 50 192 50H151H110C81.7157 50 67.5736 50 58.7868 58.7868C50 67.5736 50 81.7157 50 110V151ZM158.474 98.8411C158.752 98.9557 159.661 99.1562 160.494 99.286C162.283 99.5652 164.579 100.145 166.958 100.92C169.279 101.675 169.944 101.944 172.816 103.292C173.316 103.526 173.952 103.814 174.23 103.931C174.508 104.048 175.144 104.415 175.644 104.745C176.144 105.076 176.78 105.463 177.058 105.605C178 106.087 181.036 108.173 181.828 108.883C181.952 108.994 182.492 109.449 183.027 109.893C185.542 111.98 188.635 115.045 189.094 115.902C189.257 116.208 189.457 116.458 189.54 116.458C190.422 116.458 196.261 126.008 197.259 129.083C197.403 129.527 197.635 130.073 197.774 130.295C197.912 130.517 198.09 131.017 198.167 131.406C198.244 131.795 198.429 132.304 198.576 132.538C198.724 132.772 198.909 133.317 198.988 133.75C199.066 134.183 199.254 134.855 199.406 135.244C199.661 135.899 199.972 137.331 200.46 140.092C201.092 143.668 201.311 150.129 200.896 152.966C200.11 158.334 199.365 161.594 198.576 163.12C198.432 163.398 198.247 163.943 198.163 164.332C198.024 164.983 196.685 168.057 195.919 169.483C195.74 169.816 195.279 170.68 194.895 171.402C194.51 172.124 194.066 172.858 193.908 173.034C193.751 173.209 193.622 173.41 193.622 173.481C193.622 173.552 193.346 173.999 193.008 174.475C192.672 174.952 192.172 175.659 191.898 176.048C191.625 176.437 191.196 177.045 190.946 177.399C189.316 179.705 182.904 186.094 180.694 187.615C180.416 187.805 179.644 188.371 178.977 188.869C178.31 189.368 177.447 189.961 177.058 190.186C176.669 190.412 176.175 190.709 175.959 190.847C173.067 192.692 168.537 194.853 165.544 195.813C162.224 196.877 161.408 197.095 160.332 197.2C159.699 197.263 158.908 197.461 158.575 197.639C157.664 198.129 143.763 198.125 142.112 197.635C141.501 197.454 140.24 197.205 139.309 197.084C138.379 196.962 137.511 196.773 137.381 196.665C137.25 196.557 136.738 196.41 136.244 196.339C135.75 196.268 134.89 196.044 134.335 195.841C131.894 194.95 129.917 194.186 129.613 194.017C129.433 193.916 128.967 193.698 128.578 193.532C124.964 191.989 118.243 187.105 115.65 184.137C113.311 181.46 112.711 180.747 112.418 180.296C112.251 180.04 111.931 179.593 111.705 179.302C111.48 179.012 111.03 178.366 110.705 177.866C110.38 177.366 109.973 176.791 109.802 176.589C109.166 175.84 107.042 171.698 105.236 167.683C103.962 164.851 104.836 163.12 107.54 163.12C109.245 163.12 109.709 163.428 110.492 165.082C111.902 168.061 113.137 170.537 113.443 170.998C113.627 171.276 114.223 172.188 114.767 173.026C116.557 175.783 117.333 176.71 120.429 179.779C124.036 183.354 124.744 183.918 129.083 186.667C130.121 187.325 133.762 189.117 134.366 189.268C134.682 189.347 135.077 189.529 135.244 189.673C135.411 189.817 135.9 189.998 136.332 190.076C136.764 190.153 137.444 190.392 137.844 190.606C138.244 190.821 138.78 190.996 139.035 190.996C139.29 190.996 140.019 191.171 140.654 191.384C141.289 191.597 142.491 191.838 143.324 191.919C144.157 192 145.052 192.205 145.313 192.375C146.021 192.836 156.174 192.84 156.883 192.38C157.147 192.208 158.085 192.003 158.967 191.924C159.85 191.845 161.074 191.604 161.688 191.388C162.301 191.172 163.009 190.996 163.26 190.996C163.712 190.996 165.67 190.296 167.283 189.558C167.74 189.349 168.194 189.175 168.293 189.173C168.661 189.162 173.224 186.746 175.075 185.58C175.648 185.22 176.661 184.459 178.729 182.838C180.038 181.812 184.734 177.213 184.734 176.958C184.734 176.877 185.085 176.389 185.515 175.874C186.397 174.815 188.739 171.412 189.218 170.493C189.392 170.16 189.872 169.205 190.284 168.372C190.698 167.539 191.208 166.521 191.42 166.11C191.631 165.699 191.804 165.241 191.804 165.092C191.804 164.943 191.99 164.461 192.218 164.021C192.446 163.581 192.712 162.857 192.809 162.413C192.906 161.969 193.125 161.196 193.296 160.696C193.466 160.196 193.71 159.242 193.838 158.575C193.965 157.908 194.15 157.136 194.248 156.858C194.765 155.395 195.197 146.845 194.86 144.738C194.745 144.016 194.564 142.607 194.458 141.607C194.352 140.607 194.175 139.425 194.064 138.981C193.953 138.537 193.759 137.653 193.632 137.017C193.505 136.381 193.27 135.608 193.109 135.3C192.948 134.992 192.816 134.582 192.815 134.39C192.813 133.783 190.564 128.46 189.761 127.164C189.658 126.997 189.445 126.581 189.287 126.239C189.129 125.897 188.858 125.5 188.685 125.356C188.511 125.212 188.37 124.997 188.37 124.878C188.37 124.613 187.528 123.341 186.539 122.114C186.137 121.614 185.725 121.053 185.624 120.867C185.292 120.255 183.851 118.608 182.209 116.964C179.989 114.739 179.568 114.384 175.947 111.671C175.614 111.421 175.159 111.121 174.937 111.005C174.715 110.889 174.124 110.529 173.624 110.206C171.651 108.929 166.987 106.764 165.547 106.455C165.16 106.373 164.66 106.185 164.436 106.039C164.212 105.893 163.438 105.64 162.716 105.475C161.994 105.311 161.039 105.083 160.595 104.969C157.119 104.072 148.717 103.689 145.647 104.286C144.98 104.416 143.662 104.657 142.718 104.821C139.871 105.317 138.423 105.74 134.941 107.096C133.889 107.505 129.46 109.701 128.679 110.201C128.346 110.414 127.826 110.728 127.523 110.899C126.897 111.254 125.779 112.002 125.339 112.36C122.417 114.741 119.509 117.4 118.674 118.455C118.072 119.215 117.621 119.762 115.992 121.71C115.744 122.006 115.184 122.859 114.103 124.588C113.808 125.061 113.399 125.693 113.194 125.994C112.624 126.833 113.149 127.966 114.112 127.974C114.235 127.975 114.791 128.199 115.347 128.472C115.902 128.746 116.448 128.973 116.559 128.979C116.67 128.984 117.215 129.308 117.771 129.698C118.326 130.088 119.005 130.564 119.278 130.755C120.238 131.427 121.799 133.283 122.544 134.638C122.696 134.916 122.943 135.296 123.092 135.482C123.241 135.669 123.514 136.098 123.698 136.435C123.883 136.772 124.669 138.164 125.447 139.529C127.006 142.265 128.397 144.861 128.887 145.95C129.446 147.192 130.834 150.08 131.024 150.394C131.125 150.561 131.309 150.924 131.433 151.202C133.619 156.083 134.791 157.912 136.355 158.882V158.882C136.883 159.21 137.492 159.385 138.114 159.388L157.161 159.488C168.16 159.546 177.182 159.614 177.209 159.64C177.49 159.899 176.78 160.676 174.895 162.17C172.077 164.404 171.279 165.063 171.065 165.34C170.638 165.891 136.128 165.896 135.049 165.346C134.609 165.121 134.138 164.938 134 164.938C133.535 164.938 132.164 163.841 131.632 163.042C130.757 161.728 130.524 161.384 129.886 160.465C129.152 159.409 125.348 151.817 125.341 151.396C125.339 151.234 125.159 150.874 124.942 150.596C124.725 150.318 124.545 149.944 124.543 149.765C124.54 149.585 124.356 149.207 124.134 148.925C123.912 148.642 123.73 148.344 123.73 148.262C123.73 148.004 122.319 145.168 122.134 145.053C122.036 144.993 121.897 144.708 121.825 144.418C121.714 143.975 121.285 143.195 119.99 141.08C119.88 140.901 119.617 140.492 119.405 140.171C119.193 139.85 118.791 139.242 118.512 138.819C117.101 136.683 114.85 134.832 112.831 134.15L112.682 134.099C111.925 133.843 111.088 134.072 110.566 134.677V134.677C107.442 138.305 104.289 137.323 104.274 132.719C104.268 130.723 105.955 126.413 108.067 123.023C108.957 121.595 110.313 119.549 110.693 119.059C110.92 118.767 111.287 118.274 111.509 117.962C113.422 115.282 118.777 110.04 121.709 107.981C124.189 106.238 125.606 105.344 127.77 104.155C128.552 103.725 130.357 102.924 130.543 102.924C130.657 102.924 130.856 102.797 130.985 102.641C131.115 102.485 131.467 102.298 131.768 102.225C132.069 102.152 132.679 101.927 133.123 101.725C134.065 101.296 135.61 100.759 136.759 100.461C137.203 100.346 138.112 100.088 138.779 99.8879C139.446 99.688 140.809 99.4173 141.809 99.286C142.809 99.1547 143.809 98.9673 144.031 98.8688C144.942 98.4648 157.505 98.4411 158.474 98.8411ZM171.247 119.109C171.631 119.315 173.159 120.51 174.145 121.376C174.843 121.989 176.615 123.419 177.09 123.754C177.501 124.043 177.522 124.122 177.269 124.426C177.002 124.748 175.843 124.768 160.507 124.716L145.184 124.665C144.429 124.663 143.687 124.862 143.035 125.243V125.243C141.602 126.081 141.081 126.749 139.612 129.637C138.057 132.693 138.04 132.552 140.476 136.983C142.285 140.275 141.673 140.165 157.699 140.106C171.776 140.055 170.845 139.985 172.146 141.196C172.388 141.422 173.101 142.016 173.73 142.516C174.359 143.016 175.353 143.845 175.939 144.359C176.526 144.873 177.131 145.335 177.284 145.386C177.521 145.466 177.521 145.532 177.282 145.82C177.022 146.135 175.667 146.157 159.001 146.106L142.075 146.054C141.372 146.052 140.683 145.86 140.08 145.499V145.499C138.438 144.514 137.183 142.778 135.08 138.577C131.962 132.35 132.004 132.592 133.493 129.515C133.984 128.5 134.453 127.442 134.536 127.164C134.618 126.886 134.801 126.523 134.941 126.356C135.081 126.189 135.262 125.839 135.341 125.578C135.501 125.055 136.052 124.162 137.167 122.619C137.569 122.064 138.069 121.317 138.28 120.96C138.674 120.292 139.978 119.35 140.89 119.073C141.754 118.811 170.754 118.845 171.247 119.109ZM106.358 154.237C108.811 154.948 109.416 158.116 107.416 159.787C106.551 160.511 104.62 160.619 103.67 159.996C100.738 158.075 102.985 153.26 106.358 154.237ZM144.242 170.042C149.761 172.081 148.638 179.28 142.8 179.28C137.136 179.28 136.117 172.11 141.489 170.064C142.934 169.513 142.814 169.514 144.242 170.042ZM161.201 170.042C166.715 172.094 165.624 179.28 159.799 179.28C154.127 179.28 153.107 171.915 158.513 169.994C159.873 169.511 159.77 169.509 161.201 170.042Z" fill="black"/>
     </g>
     <defs>
          <filter id="filter0_d" x="0" y="0" width="302" height="302" filterUnits="userSpaceOnUse" color-interpolation-filters="sRGB">
               <feFlood flood-opacity="0" result="BackgroundImageFix"/>
               <feColorMatrix in="SourceAlpha" type="matrix" values="0 0 0 0 0 0 0 0 0 0 0 0 0 0 0 0 0 0 127 0"/>
               <feOffset/>
               <feGaussianBlur stdDeviation="25"/>
               <feColorMatrix type="matrix" values="0 0 0 0 0 0 0 0 0 0 0 0 0 0 0 0 0 0 0.69 0"/>
               <feBlend mode="normal" in2="BackgroundImageFix" result="effect1_dropShadow"/>
               <feBlend mode="normal" in="SourceGraphic" in2="effect1_dropShadow" result="shape"/>
          </filter>
     </defs>
</svg>
